<svg xmlns="http://www.w3.org/2000/svg" viewBox="0 0 128 128" role="img" aria-label="CingyFun CingyTech logo">
  <defs>
    <linearGradient id="cg" x1="18" y1="18" x2="108" y2="112" gradientUnits="userSpaceOnUse">
      <stop stop-color="#1de9b6"/>
      <stop offset="1" stop-color="#39ff88"/>
    </linearGradient>
    <linearGradient id="tg" x1="42" y1="42" x2="94" y2="104" gradientUnits="userSpaceOnUse">
      <stop stop-color="#f4fff9"/>
      <stop offset="1" stop-color="#9fffd1"/>
    </linearGradient>
  </defs>
  <rect width="128" height="128" rx="28" fill="#071016"/>
  <path d="M91 23H56L25 42v46l31 18h23V88L59 76V54l26-15h30c-5-10-13-16-24-16Z" fill="url(#cg)"/>
  <path d="M43 47h70c3 0 5 3 3 6L103 70c-1 2-3 3-6 3H76v31c0 2-1 4-3 5l-9 8c-4 3-10 0-10-5V73H39c-4 0-6-4-4-7l10-15c1-2 3-4 6-4Z" fill="url(#tg)" stroke="#06202a" stroke-width="4" stroke-linejoin="round"/>
  <circle cx="88" cy="106" r="11" fill="#1de9b6" stroke="#f4fff9" stroke-width="5"/>
</svg>
