<svg xmlns="http://www.w3.org/2000/svg" viewBox="0 0 128 128" role="img" aria-label="WorldGuess logo">
  <defs>
    <linearGradient id="g" x1="20" y1="18" x2="108" y2="112" gradientUnits="userSpaceOnUse">
      <stop stop-color="#1de9b6"/>
      <stop offset="1" stop-color="#39ff88"/>
    </linearGradient>
  </defs>
  <rect width="128" height="128" rx="32" fill="#0b1117"/>
  <circle cx="64" cy="58" r="38" fill="none" stroke="url(#g)" stroke-width="10"/>
  <path d="M64 18c12 12 18 25 18 40s-6 28-18 40c-12-12-18-25-18-40s6-28 18-40Z" fill="none" stroke="#8ab4f8" stroke-width="7"/>
  <path d="M28 58h72M36 38h56M36 78h56" stroke="url(#g)" stroke-width="7" stroke-linecap="round"/>
  <path d="M64 121s28-29 28-51c0-15-12-28-28-28S36 55 36 70c0 22 28 51 28 51Z" fill="#ff4d5e" stroke="#fff" stroke-width="6"/>
  <circle cx="64" cy="70" r="9" fill="#fff"/>
</svg>
